PathFileType	4	(X/Y/Z)	/Users/itak/Documents/Research/Walk-IL/dataset/trc/00544_00009.trc
DataRate	CameraRate	NumFrames	NumMarkers	Units	OrigDataRate	OrigDataStartFrame	OrigNumFrames
100.000000	100.000000	4	53	mm	100.000000	478	547
Frame#	Time	RPSI			LPSI			L3			STRN			T10			C7			CLAV			RBAK			LBAK			LSHO			LUPA			LAEL			LAOL			LWTS			LWPS			LFRA			LIFD			LHPS			LHTS			RSHO			RUPA			RAEL			RAOL			RWTS			RWPS			RFRA			RIFD			RHTS			RHPS			RBHD			LFHD			RFHD			LBHD			LHIP			RHIP			RASI			LASI			LKNE			LTHI			LANK			LTIP			LTOE			LMT1			LMT5			LHEE			RKNE			RTHI			RANK			RTIP			RTOE			RMT1			RMT5			RHEE			
		X1	Y1	Z1	X2	Y2	Z2	X3	Y3	Z3	X4	Y4	Z4	X5	Y5	Z5	X6	Y6	Z6	X7	Y7	Z7	X8	Y8	Z8	X9	Y9	Z9	X10	Y10	Z10	X11	Y11	Z11	X12	Y12	Z12	X13	Y13	Z13	X14	Y14	Z14	X15	Y15	Z15	X16	Y16	Z16	X17	Y17	Z17	X18	Y18	Z18	X19	Y19	Z19	X20	Y20	Z20	X21	Y21	Z21	X22	Y22	Z22	X23	Y23	Z23	X24	Y24	Z24	X25	Y25	Z25	X26	Y26	Z26	X27	Y27	Z27	X28	Y28	Z28	X29	Y29	Z29	X30	Y30	Z30	X31	Y31	Z31	X32	Y32	Z32	X33	Y33	Z33	X34	Y34	Z34	X35	Y35	Z35	X36	Y36	Z36	X37	Y37	Z37	X38	Y38	Z38	X39	Y39	Z39	X40	Y40	Z40	X41	Y41	Z41	X42	Y42	Z42	X43	Y43	Z43	X44	Y44	Z44	X45	Y45	Z45	X46	Y46	Z46	X47	Y47	Z47	X48	Y48	Z48	X49	Y49	Z49	X50	Y50	Z50	X51	Y51	Z51	X52	Y52	Z52	X53	Y53	Z53	

479	4.78	1337.050537109375	1012.327575683594	200.275146484375	1347.193359375	1016.595825195312	67.02211761474609	1341.22802734375	1108.703247070312	128.7041931152344	1574.49169921875	1299.791625976562	135.0518798828125	1331.3134765625	1234.002319335938	123.231071472168	1378.689208984375	1508.599731445312	133.2064208984375	1553.99853515625	1410.570556640625	134.4984436035156	1304.867309570312	1384.572631835938	217.0041961669922	1348.196411132812	1454.9814453125	38.0926513671875	1453.348876953125	1478.188232421875	-33.38236236572266	1467.363037109375	1353.997924804688	-113.7106857299805	1542.234008789062	1143.232543945312	-129.4558563232422	1447.953247070312	1112.898559570312	-107.4621887207031	1679.79345703125	937.6881103515625	-40.07072067260742	1669.178100585938	903.0830688476562	-120.191291809082	1588.526000976562	1066.605224609375	-124.4783096313477	1735.5380859375	778.6175537109375	-29.53208923339844	1694.64306640625	850.0547485351562	-104.5630722045898	1725.882690429688	872.4209594726562	-47.57741546630859	1431.466674804688	1474.911010742188	292.014892578125	1408.81591796875	1411.906616210938	359.4060668945312	1399.8291015625	1124.562255859375	411.8966674804688	1345.560180664062	1106.218994140625	383.625732421875	1542.968994140625	911.2478637695312	380.9926147460938	1496.777587890625	888.9339599609375	445.0322570800781	1411.124267578125	1069.740844726562	421.0524291992188	1565.991455078125	739.651123046875	388.7405700683594	1576.235473632812	822.6766357421875	398.3096923828125	1518.419311523438	815.8299560546875	445.3612365722656	1460.462036132812	1687.554809570312	204.4423217773438	1621.541748046875	1707.738403320312	75.08123016357422	1601.06640625	1704.160766601562	220.1125183105469	1492.674926757812	1690.430419921875	42.82742309570312	1486.402709960938	943.0222778320312	-59.19806289672852	1456.2744140625	943.2127075195312	328.6127319335938	1544.195190429688	977.0603637695312	275.3742065429688	1557.422607421875	968.2816162109375	0.02308924123644829	1499.771240234375	496.5821228027344	19.38929176330566	1504.386108398438	661.5455322265625	-22.89302825927734	1419.913330078125	33.65365600585938	38.25824737548828	1438.282958984375	251.0371551513672	20.70912933349609	1623.600830078125	37.94376373291016	122.159538269043	1545.833129882812	43.7752685546875	146.9562072753906	1542.619140625	34.56980133056641	37.09212875366211	1347.78857421875	40.59083938598633	82.17230224609375	1506.793579101562	500.4068603515625	291.5606994628906	1502.400268554688	790.3663330078125	329.2726440429688	1377.580932617188	41.34527969360352	274.8383483886719	1497.56103515625	354.3246765136719	281.2381591796875	1599.740844726562	39.60800170898438	259.4943542480469	1540.153442382812	40.67158508300781	211.8493194580078	1505.991455078125	40.08353424072266	311.1717224121094	1329.242797851562	35.47123336791992	213.8670043945312	
480	4.79	1338.620971679688	1012.402893066406	200.5674285888672	1349.0205078125	1016.545104980469	67.37163543701172	1342.601318359375	1108.632934570312	129.2151031494141	1575.453857421875	1300.008544921875	136.031494140625	1332.437866210938	1233.928466796875	124.0617141723633	1379.385864257812	1508.5400390625	134.3161773681641	1554.756103515625	1410.739135742188	135.5056762695312	1305.753051757812	1384.396118164062	218.1257476806641	1348.816528320312	1454.916870117188	39.31061935424805	1453.882446289062	1478.199951171875	-32.37314987182617	1467.109252929688	1353.788696289062	-112.6505813598633	1539.867919921875	1142.314819335938	-128.5979156494141	1445.406616210938	1112.973022460938	-105.9863204956055	1675.743041992188	935.3607788085938	-39.85269546508789	1664.408081054688	900.9309692382812	-119.9364471435547	1585.403686523438	1065.24365234375	-123.8430709838867	1729.824462890625	775.6767578125	-29.70961952209473	1689.365478515625	847.6151123046875	-104.4376754760742	1721.09423828125	869.5926513671875	-47.66293716430664	1432.203247070312	1474.871337890625	293.1033020019531	1409.64990234375	1411.849487304688	360.5204467773438	1401.23291015625	1124.528198242188	413.0422973632812	1346.970825195312	1106.154296875	384.7848510742188	1544.2421875	910.9926147460938	382.1560363769531	1498.14599609375	888.881591796875	446.2492980957031	1412.5283203125	1069.708862304688	422.2498779296875	1567.198364257812	739.4934692382812	390.0448303222656	1577.535522460938	822.4345092773438	399.5615234375	1519.681762695312	815.7792358398438	446.6732177734375	1461.084350585938	1687.738525390625	205.4761199951172	1621.973388671875	1707.972412109375	75.96194458007812	1601.689697265625	1704.485473632812	221.1621246337891	1493.102172851562	1690.538330078125	43.81254577636719	1488.392944335938	943.1998291015625	-58.33672714233398	1457.883178710938	943.4544067382812	329.1445617675781	1545.513671875	977.2586669921875	276.235107421875	1559.45751953125	968.4251098632812	0.8641911149024963	1500.653930664062	496.728515625	19.97359275817871	1505.947509765625	661.5186157226562	-22.18035888671875	1419.9375	33.76633453369141	38.35618209838867	1438.60888671875	251.2464294433594	20.93346977233887	1623.58447265625	37.95468521118164	122.1740570068359	1545.839233398438	43.75613021850586	147.0237884521484	1542.65087890625	34.62124252319336	37.147705078125	1347.798828125	40.72917938232422	82.25775146484375	1505.776245117188	500.4604797363281	291.7876892089844	1502.614624023438	790.624267578125	330.0027770996094	1377.538818359375	41.13957977294922	274.9657592773438	1496.547241210938	354.5162353515625	281.4128723144531	1599.699829101562	39.67619323730469	259.5057373046875	1540.08251953125	40.80073165893555	211.9346313476562	1505.910522460938	40.00387954711914	311.3062133789062	1329.181274414062	35.32871246337891	213.9229583740234	
481	4.8	1340.1103515625	1012.596374511719	200.7975158691406	1350.819091796875	1016.568359375	67.67755889892578	1344.017944335938	1108.623413085938	129.6025085449219	1576.410888671875	1300.267333984375	137.0046691894531	1333.544311523438	1233.921875	124.8008804321289	1380.065673828125	1508.509399414062	135.4114074707031	1555.512939453125	1410.953125	136.5073852539062	1306.62744140625	1384.2646484375	219.18896484375	1349.467529296875	1454.913940429688	40.47605514526367	1454.442993164062	1478.287475585938	-31.36104965209961	1466.833129882812	1353.677490234375	-111.6095504760742	1537.2841796875	1141.467529296875	-127.802116394043	1442.649291992188	1113.186645507812	-104.4723510742188	1671.403564453125	933.0308227539062	-39.82939910888672	1659.236328125	898.7686767578125	-119.8130645751953	1582.00830078125	1063.927978515625	-123.3128967285156	1723.658813476562	772.6691284179688	-30.12276649475098	1683.652221679688	845.1492309570312	-104.4894180297852	1715.945556640625	866.7125854492188	-47.98247528076172	1432.879638671875	1474.880004882812	294.17724609375	1410.427124023438	1411.85205078125	361.6111145019531	1402.567504882812	1124.545654296875	414.15283203125	1348.310668945312	1106.139404296875	385.9055786132812	1545.440673828125	910.773193359375	383.3675537109375	1499.414428710938	888.8721923828125	447.5062561035156	1413.836303710938	1069.723022460938	423.428466796875	1568.3212890625	739.3609619140625	391.4454040527344	1578.720581054688	822.2056274414062	400.8489379882812	1520.841918945312	815.7638549804688	448.0253601074219	1461.66064453125	1687.958740234375	206.5308227539062	1622.367309570312	1708.262939453125	76.87855529785156	1602.23681640625	1704.871337890625	222.2109375	1493.495239257812	1690.691284179688	44.82452011108398	1490.349731445312	943.3252563476562	-57.49823379516602	1459.405883789062	943.7896728515625	329.6289978027344	1546.7197265625	977.5326538085938	277.1022644042969	1561.4580078125	968.5148315429688	1.679842233657837	1501.49560546875	496.879150390625	20.54497337341309	1507.488891601562	661.4898071289062	-21.44913101196289	1419.961791992188	33.87844085693359	38.4588508605957	1438.929077148438	251.4715728759766	21.12512969970703	1623.568359375	37.96452713012695	122.1919784545898	1545.854248046875	43.74765777587891	147.0995941162109	1542.689208984375	34.67184829711914	37.20545196533203	1347.820434570312	40.87713241577148	82.32765197753906	1504.694213867188	500.5842895507812	292.1879577636719	1503.14501953125	790.9414672851562	330.5956115722656	1377.492553710938	40.94450378417969	275.190185546875	1495.506225585938	354.7886962890625	281.7086486816406	1599.66259765625	39.72502517700195	259.5387268066406	1540.003295898438	40.98778915405273	212.0908660888672	1505.810180664062	39.89504241943359	311.5052185058594	1329.124389648438	35.25104141235352	214.0479736328125	
482	4.81	1341.519165039062	1012.881652832031	200.9916381835938	1352.589233398438	1016.655944824219	67.95274353027344	1345.48583984375	1108.648315429688	129.8908996582031	1577.368774414062	1300.545166015625	137.9667816162109	1334.654296875	1233.958129882812	125.4496078491211	1380.734985351562	1508.496337890625	136.4821472167969	1556.276000976562	1411.190673828125	137.4915466308594	1307.493530273438	1384.158081054688	220.1851959228516	1350.158081054688	1454.9560546875	41.58313369750977	1455.036743164062	1478.427856445312	-30.35585594177246	1466.535888671875	1353.645751953125	-110.6041564941406	1534.488037109375	1140.6767578125	-127.0853500366211	1439.693603515625	1113.521240234375	-102.9340896606445	1666.79541015625	930.697265625	-40.00333404541016	1653.68359375	896.5953369140625	-119.8254165649414	1578.350952148438	1062.650024414062	-122.9026489257812	1717.068359375	769.6139526367188	-30.75876235961914	1677.5263671875	842.6642456054688	-104.7233047485352	1710.456787109375	863.7946166992188	-48.52427291870117	1433.514404296875	1474.918212890625	295.2224426269531	1411.161010742188	1411.895874023438	362.671142578125	1403.818603515625	1124.592651367188	415.2329711914062	1349.564575195312	1106.148315429688	386.9902954101562	1546.57177734375	910.596923828125	384.6261596679688	1500.588500976562	888.89599609375	448.8014831542969	1415.045288085938	1069.762329101562	424.5848693847656	1569.388793945312	739.2463989257812	392.9391784667969	1579.808959960938	821.9963989257812	402.164306640625	1521.91943359375	815.7694702148438	449.4073181152344	1462.18115234375	1688.191040039062	207.6020202636719	1622.7216796875	1708.600952148438	77.82953643798828	1602.701416015625	1705.295532226562	223.2411499023438	1493.850708007812	1690.875122070312	45.86408233642578	1492.28759765625	943.4134521484375	-56.64645767211914	1460.892456054688	944.1594848632812	330.0513305664062	1547.819702148438	977.841064453125	277.9778747558594	1563.439208984375	968.5665893554688	2.507897138595581	1502.278930664062	497.0135498046875	21.1190128326416	1508.988647460938	661.451171875	-20.70331382751465	1419.98388671875	33.98027801513672	38.56100082397461	1439.227783203125	251.6903686523438	21.30470848083496	1623.553833007812	37.97624969482422	122.2109375	1545.8798828125	43.75410079956055	147.1836700439453	1542.73193359375	34.71981430053711	37.26691436767578	1347.847900390625	41.01998519897461	82.38499450683594	1503.547241210938	500.7350463867188	292.7270812988281	1503.966186523438	791.2576904296875	331.0713806152344	1377.426025390625	40.76179885864258	275.4756774902344	1494.436889648438	355.0997924804688	282.0837707519531	1599.636108398438	39.74833297729492	259.588134765625	1539.925659179688	41.19919586181641	212.2914886474609	1505.705932617188	39.77352905273438	311.733154296875	1329.074951171875	35.21238708496094	214.2122039794922	
